<svg width="800" height="637" viewBox="0 0 800 637" fill="none" xmlns="http://www.w3.org/2000/svg">
<g clip-path="url(#clip0_11429_1601)">
<path d="M757.427 531.957C749.795 521.27 753.736 504.389 753.736 504.389C753.736 504.389 751.478 430.13 739.602 412.688C739.602 412.688 722.625 372.182 719.806 370.492C716.986 368.801 700.018 356.992 701.708 350.519C701.708 350.519 699.147 351.397 695.508 352.733C695.412 352.489 695.323 352.246 695.227 351.995C694.179 349.109 693.013 345.714 691.906 342.252C692.022 342.192 692.129 342.115 692.223 342.023C692.307 342.209 692.404 342.389 692.511 342.562C693.655 344.304 695.818 345.108 697.899 345.322C698.932 345.486 699.991 345.348 700.948 344.924C701.629 344.554 702.178 343.981 702.52 343.285C702.387 343.344 702.247 343.381 702.106 343.433C702.911 342.182 703.279 340.7 703.154 339.218C703.031 337.108 702.423 335.055 701.379 333.217C700.334 331.379 698.881 329.806 697.132 328.619C697.836 328.366 698.479 327.969 699.021 327.453L699.309 327.652C699.559 327.389 699.786 327.105 699.988 326.804C699.767 326.941 699.538 327.064 699.302 327.173C699.948 326.495 700.423 325.672 700.687 324.773C700.95 323.874 700.994 322.925 700.815 322.006C700.542 322.929 699.442 323.276 698.497 323.482C697.943 323.6 697.456 323.696 697.021 323.77C698.171 321.59 699.12 319.31 699.855 316.957C701.243 311.946 700.505 306.624 699.331 301.561C697.744 294.733 695.131 287.707 689.537 283.256C687.002 281.402 684.257 279.856 681.358 278.65C678.738 277.331 675.99 276.28 673.158 275.513C670.28 274.842 667.253 274.775 664.36 274.384C658.662 273.646 653.148 271.705 647.384 271.387C641.619 271.07 635.235 272.797 632.29 277.565C631.35 278.997 630.909 280.699 631.035 282.407C631.045 282.536 631.062 282.664 631.087 282.791C631.087 282.791 631.087 282.791 631.087 282.828C631.397 285.832 633.899 288.297 636.763 289.515C637.244 289.716 637.737 289.888 638.239 290.032C633.867 293.716 630.487 298.437 628.409 303.763C626.331 309.089 625.62 314.851 626.342 320.523C627.063 326.195 629.194 331.595 632.54 336.232C635.885 340.868 640.339 344.592 645.494 347.064C645.841 347.802 646.232 348.496 646.565 349.279C650.993 358.431 656.617 371.052 658.418 379.725C658.418 379.88 658.47 380.028 658.5 380.175C658.33 380.596 637.22 418.239 640.21 420.453L639.339 421.398C633.722 427.554 627.906 434.684 628.208 437.555C628.208 437.555 626.385 436.817 623.558 435.533L623.75 433.473L622.355 433.554V433.473L619.344 433.643C609.446 429.133 594.426 421.833 591.444 417.744C587.982 412.998 570.585 400.03 562.658 394.192V369.229H532.986L524.919 374.352L532.994 369.229H432.871L426.118 365.317L423.94 364.048C424.04 363.481 424.04 362.902 423.94 362.336C423.94 362.336 389.582 329.859 387.884 323.519C387.884 323.519 384.43 318.847 380.503 312.95L428.59 316.345C426.509 315.127 425.638 312.654 425.431 309.739H446.969C446.969 309.739 496.17 277.949 493.055 267.822C489.941 257.696 437.92 295.132 437.92 295.132H427.786C428.243 293.656 428.583 292.74 428.583 292.74C428.583 292.74 402.705 292.32 401.473 290.526C400.24 288.733 387.449 285.551 387.449 285.551L394.01 255.467C396.372 251.85 400.941 244.683 402.934 240.402C403.731 238.69 403.945 235.235 403.842 231.183V231.117C411.762 224.385 408.477 197.903 408.462 197.77C412.529 192.427 417.35 187.703 422.774 183.746C423.254 183.414 423.741 183.089 424.25 182.772C429.33 185.344 434.91 186.776 440.6 186.969C446.291 187.162 451.955 186.109 457.197 183.886C462.439 181.663 467.132 178.323 470.95 174.098C474.767 169.873 477.616 164.866 479.297 159.426C479.452 158.916 479.6 158.4 479.733 157.883C480.124 158.031 480.508 158.193 480.892 158.333C481.404 158.522 481.941 158.634 482.486 158.665C482.901 158.731 483.327 158.682 483.716 158.525C484.106 158.368 484.446 158.107 484.7 157.772C485.232 156.96 484.995 155.927 484.958 154.945H484.922C484.922 154.79 484.922 154.628 484.922 154.48C484.984 153.611 485.305 152.781 485.844 152.096V152.148C486.553 151.223 487.458 150.467 488.494 149.934C490.273 148.982 492.273 148.458 493.985 147.387C495.398 146.436 496.581 145.181 497.445 143.713C498.31 142.246 498.835 140.603 498.982 138.907L498.938 138.995C498.982 138.574 499.012 138.154 499.019 137.733C498.961 134.489 497.933 131.338 496.067 128.684C493.587 124.993 491.04 126.174 487.771 124.255C485.874 123.156 485.298 120.934 484.198 119.155C482.284 116.177 479.746 113.651 476.758 111.752C472.33 108.8 467.266 106.895 462.646 104.231C456.298 100.54 450.726 95.4991 443.861 92.938C440.29 91.7349 436.609 90.8894 432.871 90.4137C430.753 90.0741 428.568 89.7346 426.479 90.1996C423.615 90.8418 421.313 92.8937 418.737 94.2813C412.544 97.6175 404.609 97.1746 398.985 101.389C393.154 105.751 391.604 113.649 390.438 120.808C388.438 133.053 386.201 145.616 379.706 156.237C379.325 156.709 379.136 157.307 379.175 157.913C379.332 158.389 379.637 158.802 380.046 159.093C380.907 159.843 381.814 160.538 382.762 161.175H381.928C379.906 159.932 378.163 158.287 376.805 156.34C376.397 155.764 375.867 155.285 375.253 154.936C374.639 154.587 373.957 154.377 373.253 154.321C372.549 154.265 371.841 154.363 371.18 154.61C370.518 154.857 369.919 155.246 369.424 155.75C369.343 155.838 369.255 155.934 369.188 156.023C367.911 157.713 317.44 176.306 306.841 187.023C296.405 197.607 285.141 212.901 284.794 213.38C284.794 213.38 284.093 214.119 282.838 215.477C277.531 221.138 262.127 237.081 247.277 248.285C246.539 248.839 245.801 249.377 245.063 249.901L244.79 250.086C240.75 252.851 236.561 255.391 232.242 257.696C231.939 257.829 231.637 257.984 231.334 258.109C230.961 258.267 230.6 258.455 230.256 258.67L230.168 258.714C227.474 259.954 225.082 260.729 223.709 260.419C219.045 259.364 186.391 297.76 183.417 314.64C180.442 331.52 177.054 332.354 177.054 332.354C177.054 332.354 171.541 347.965 172.39 350.917C173.017 353.095 168.574 361.251 167.378 369.244C149.487 369.37 81.2939 370.13 22.0838 374.263C19.7353 379.131 17.6797 384.134 15.9281 389.247C15.7657 389.704 15.6255 390.162 15.4705 390.627C14.4351 393.827 13.5776 397.082 12.9019 400.377C11.0752 408.954 10.9123 417.801 12.4222 426.439C15.0203 440.898 22.6891 453.889 30.2103 466.533C34.6388 473.965 39.0674 481.42 43.6658 488.786C44.4039 489.982 45.1419 491.17 45.9243 492.366C48.1829 495.946 50.4636 499.511 52.8108 503.024L53.726 504.389L54.1762 505.046C54.5453 505.593 54.9143 506.139 55.276 506.678C60.2877 514 65.5355 521.144 71.1598 527.964L74.6658 532.127C78.5555 536.637 82.6225 540.984 86.9034 545.147L87.0437 545.287L87.1913 545.428L87.3684 545.597C87.4115 545.645 87.4584 545.69 87.5087 545.73C87.6563 545.885 87.8187 546.033 87.981 546.181C93.7895 551.718 99.9189 556.908 106.337 561.725C112.058 555.03 120.649 547.125 120.649 547.125L162.211 511.697C164.578 509.56 167.121 507.626 169.814 505.917L173.94 506.013C179.461 511.224 188.015 515.609 198.105 519.218C198.803 522.198 199.673 525.136 200.71 528.016H208.091C208.091 528.016 211.782 549.111 209.354 554.742C206.925 560.374 209.782 587.654 229.577 594.969C229.577 594.969 239.483 596.659 241.461 585.964C243.439 575.269 243.719 552.211 243.719 552.211L246.28 530.806C273.014 535.124 296.242 536.46 296.242 536.46L299.01 562.714H325.168C325.471 562.891 325.773 563.061 326.069 563.245L326.666 563.607C327.368 564.042 328.054 564.485 328.726 564.943L328.836 565.017C339.598 572.265 347.119 581.55 352.013 589.167C363.778 584.517 375.698 580.495 387.928 578.044C404.048 574.819 420.405 574.354 436.842 575.394L444.408 565.017L446.09 562.714H461.974L462.919 577.978C471.267 579.055 479.593 580.325 487.874 581.587L495.949 582.834V562.581L540.973 561.216C540.929 563.875 541.264 566.527 541.969 569.091C543.054 573.52 543.157 582.377 542.87 591.61C548.051 592.865 553.193 594.265 558.296 595.81C570.548 599.545 582.476 604.195 594.337 609.015C593.879 606.608 593.385 604.638 592.861 603.966C591.171 601.752 603.526 599.191 603.526 599.191C603.526 599.191 604.722 598.969 606.715 598.622V614.078C610.228 615.51 613.744 616.927 617.262 618.329L617.137 615.34L619.24 619.104C619.838 619.348 620.451 619.584 621.056 619.842H621.145C624.958 621.319 628.789 622.753 632.637 624.146L728.648 623.208V630.589H728.729C732.188 629.361 735.562 627.904 738.827 626.227L738.694 623.061L744.503 623.002H747.507V606.166L751.47 606.254V600.069L735.431 583.897C743.846 577.727 754.209 565.984 752.917 546.107C752.917 545.907 752.917 545.693 752.865 545.494C752.865 545.118 752.806 544.756 752.769 544.365C756.319 545.775 764.003 541.161 757.427 531.957ZM655.274 480.372C655.274 482.8 655.001 485.229 654.226 486.668C652.241 490.358 651.68 498.477 655.916 500.455C660.153 502.434 660.751 510.294 660.596 511.424H660.552C659.895 511.645 653.311 513.948 650.558 517.926C644.144 518.14 636.002 518.266 634.991 517.594C633.301 516.472 598.323 519.004 595.872 519.284C595.009 519.38 591.348 519.624 586.963 519.889L615.424 482.165C615.574 482.394 615.691 482.642 615.771 482.904C616.901 487.465 637.826 484.38 640.652 478.327C641.417 476.927 642.477 475.711 643.76 474.762L655.274 480.372ZM506.762 385.896L483.571 400.613L506.755 385.903L506.762 385.896ZM257.618 369.229L259.234 366.919L261.308 367.591L266.312 369.229H257.618ZM395.354 369.229H382.016C378.651 359.634 371.587 344.872 359.445 342.082C341.207 337.86 319.588 331.114 319.588 331.114C319.588 331.114 312.864 323.91 308.908 322.464C308.398 322.241 307.835 322.166 307.284 322.25L313.846 308.964C316.935 306.325 320.269 303.987 323.803 301.981C325.146 301.243 326.836 300.409 328.659 299.501C329.737 298.955 330.874 298.394 332.01 297.833C332.062 302.299 332.365 305.901 333.132 307.045C335.679 310.846 337.804 313.798 341.192 316.751C343.798 319.017 378.835 353.132 395.354 369.229ZM401.509 207.682L402.166 206.656C404.041 203.704 406.137 200.752 408.433 197.799L401.509 207.682ZM492.709 424.011V516.044L493.639 515.151L492.709 516.044V550.491V424.011ZM618.923 596.592L619.115 597.212L618.923 596.592Z" fill="url(#paint0_linear_11429_1601)"/>
<path opacity="0.1" d="M792.767 538.844C785.327 570.582 770.705 603.058 744.156 621.156C743.189 621.828 742.192 622.47 741.203 623.098C739.727 623.998 738.251 624.869 736.775 625.688C736.391 625.902 736.037 626.102 735.623 626.301C732.392 627.969 729.054 629.418 725.63 630.641C700.313 639.771 671.247 636.797 645.096 628.988C640.195 627.511 635.338 625.91 630.533 624.175C626.717 622.81 622.931 621.37 619.152 619.894H619.063C618.465 619.665 617.86 619.429 617.27 619.156L615.306 618.418C611.822 617.03 608.346 615.618 604.877 614.181C600.788 612.506 596.706 610.816 592.625 609.148C580.881 604.35 569.079 599.729 556.952 596.017C551.911 594.474 546.811 593.064 541.689 591.839C526.403 588.097 510.844 585.499 495.27 583.071L487.202 581.831C479.009 580.568 470.765 579.314 462.506 578.236C453.914 577.114 445.301 576.184 436.672 575.667C420.434 574.671 404.196 575.099 388.268 578.302C376.163 580.738 364.368 584.739 352.721 589.374C315.256 604.269 279.332 625.6 239.793 621.998C220.085 620.204 201.537 612.203 183.572 603.914C157.79 592.031 132.067 579.144 109.6 562.101C103.258 557.32 97.2044 552.166 91.4722 546.668C91.3098 546.527 91.1548 546.372 90.9998 546.225L90.867 546.092L90.6898 545.922L90.402 545.642C86.1653 541.508 82.1427 537.176 78.2898 532.688L74.8208 528.555C69.2555 521.764 64.0593 514.656 59.1067 507.371L57.5198 505.069L56.612 503.711C53.5218 499.046 50.5054 494.324 47.5629 489.546C43.031 482.217 38.6319 474.785 34.2772 467.404C26.8298 454.856 19.2422 441.895 16.6736 427.546C15.1799 418.952 15.3402 410.151 17.146 401.617C17.8187 398.341 18.6663 395.104 19.685 391.919C19.84 391.454 19.9803 391.003 20.1426 390.546C21.871 385.457 23.907 380.478 26.2393 375.636C42.2781 341.868 70.8055 309.517 69.787 272.192C68.9824 243.406 50.6777 218.628 36.8015 193.4C22.9253 168.172 13.4186 135.666 29.4205 111.715C42.9572 91.388 69.6394 85.1437 93.8637 82.0363C118.524 78.8123 143.365 77.1704 168.234 77.1206C187.078 77.0541 204.977 81.3794 223.444 81.992C246.044 82.7301 271.088 72.227 292.825 66.7725C318.018 60.4642 343.183 54.1609 368.317 47.8624C411.289 37.101 454.756 26.31 499.049 26C543.342 25.69 589.237 37.0715 622.768 66.0122C634.253 75.9396 644.299 88.1182 648.934 102.577C658.573 132.655 643.361 166.401 652.624 196.589C660.633 222.592 684.591 239.649 704.8 257.851C781.289 326.826 816.282 438.603 792.767 538.844Z" fill="#6C63FF"/>
<path d="M612.199 568.847L608.929 570.988L615.114 615.421L630.459 624.19L744.163 623.068L742.104 596.902L612.199 568.847Z" fill="#3A3768"/>
<path d="M615.232 618.396C611.749 617.008 608.272 615.596 604.803 614.159V592.673L614.325 597.02V597.168L615.1 615.421L615.232 618.396Z" fill="#3A3768"/>
<path opacity="0.1" d="M615.232 618.396C611.749 617.008 608.272 615.596 604.803 614.159V592.673L614.325 597.02V597.168L615.1 615.421L615.232 618.396Z" fill="black"/>
<path d="M735.549 626.308C732.319 627.976 728.98 629.426 725.556 630.648H725.474V609.125L734.988 613.473V613.628L735.394 623.164L735.549 626.308Z" fill="#3A3768"/>
<path opacity="0.1" d="M735.549 626.308C732.319 627.976 728.98 629.426 725.556 630.648H725.474V609.125L734.988 613.473V613.628L735.394 623.164L735.549 626.308Z" fill="black"/>
<path d="M744.156 603.87V623.06H741.203L630.489 624.138C626.673 622.773 622.886 621.333 619.107 619.857H619.019L617.144 597.412L744.156 603.87Z" fill="#3A3768"/>
<path d="M619.078 619.901H618.989C618.392 619.673 617.786 619.436 617.196 619.163L615.107 615.421L605.777 598.615L604.803 596.858L602.006 591.832L608.922 571.025L616.908 596.806L617.115 597.463L617.631 603.368L619.078 619.901Z" fill="#3A3768"/>
<path d="M604.803 557.695H706.107L748.082 600.231L617.122 597.434L604.803 557.695Z" fill="#3A3768"/>
<path d="M748.082 600.231V606.387L617.631 603.309L617.122 597.434L748.082 600.231Z" fill="#3A3768"/>
<path opacity="0.1" d="M748.082 600.231V606.387L617.631 603.309L617.122 597.434L748.082 600.231Z" fill="black"/>
<path d="M656.012 518.199C656.012 518.199 634.467 519.321 632.784 518.199C631.102 517.077 596.492 519.594 594.071 519.875C591.65 520.155 567.027 521.572 567.027 521.572L565.064 561.031L652.934 547.317L656.012 518.199Z" fill="#F3B4B3"/>
<path opacity="0.1" d="M656.012 518.199C656.012 518.199 634.467 519.321 632.784 518.199C631.102 517.077 596.492 519.594 594.071 519.875C591.65 520.155 567.027 521.572 567.027 521.572L565.064 561.031L652.934 547.317L656.012 518.199Z" fill="black"/>
<path d="M455.634 477.464L554.856 500.692L558.871 561.658L441.883 562.116L455.634 477.464Z" fill="#3A3768"/>
<path d="M531.473 370.595L460.011 412.142L477.415 464.001L481.371 530.946L532.994 519.904L558.871 466.828L581.952 434.507L560.731 395.373L531.473 370.595Z" fill="#3A3768"/>
<path d="M117.527 419.102C117.527 419.102 93.2732 368.661 105.437 326.634C110.655 309.038 110.024 290.224 103.636 273.019C100.551 264.875 96.7264 257.03 92.2103 249.584" stroke="#535461" stroke-width="2" stroke-miterlimit="10"/>
<path d="M99.6872 223.049C100.75 229.545 92.0627 250.3 92.0627 250.3C92.0627 250.3 77.2344 233.383 76.1715 226.888C75.6625 223.769 76.4132 220.576 78.2583 218.011C80.1035 215.447 82.8919 213.72 86.0103 213.211C89.1287 212.702 92.3215 213.452 94.8865 215.298C97.4514 217.143 99.1783 219.931 99.6872 223.049Z" fill="#6C63FF"/>
<path d="M124.997 255.858C122.362 261.888 103.791 274.591 103.791 274.591C103.791 274.591 100.529 252.33 103.171 246.299C104.439 243.405 106.804 241.133 109.747 239.983C112.689 238.833 115.969 238.898 118.863 240.166C121.757 241.433 124.029 243.799 125.18 246.742C126.33 249.684 126.264 252.964 124.997 255.858Z" fill="#6C63FF"/>
<path d="M134.186 317.467C128.864 321.334 106.419 322.929 106.419 322.929C106.419 322.929 114.848 302.063 120.169 298.195C122.725 296.335 125.915 295.567 129.037 296.059C132.159 296.551 134.957 298.263 136.817 300.819C138.677 303.375 139.445 306.564 138.953 309.686C138.461 312.808 136.749 315.607 134.193 317.467H134.186Z" fill="#6C63FF"/>
<path d="M130.636 365.65C126.045 370.366 104.197 375.717 104.197 375.717C104.197 375.717 108.972 353.737 113.563 349.02C114.655 347.899 115.957 347.004 117.395 346.387C118.833 345.769 120.378 345.44 121.943 345.42C123.508 345.399 125.061 345.687 126.515 346.267C127.968 346.847 129.293 347.707 130.414 348.799C131.535 349.891 132.43 351.193 133.048 352.631C133.666 354.068 133.994 355.614 134.015 357.178C134.035 358.743 133.747 360.297 133.168 361.75C132.588 363.204 131.727 364.529 130.636 365.65Z" fill="#6C63FF"/>
<path d="M79.301 279.868C84.7039 283.632 107.172 284.776 107.172 284.776C107.172 284.776 98.3144 264.11 92.941 260.323C91.6598 259.383 90.2034 258.709 88.6577 258.339C87.1119 257.97 85.5079 257.914 83.9401 258.174C82.3722 258.433 80.8722 259.004 79.5281 259.852C78.184 260.7 77.0231 261.808 76.1136 263.112C75.2041 264.415 74.5643 265.887 74.232 267.441C73.8997 268.995 73.8815 270.6 74.1785 272.161C74.4754 273.722 75.0816 275.208 75.9613 276.532C76.841 277.856 77.9765 278.99 79.301 279.868Z" fill="#6C63FF"/>
<path d="M75.8689 336.31C82.1427 338.288 103.917 332.657 103.917 332.657C103.917 332.657 89.3022 315.555 83.021 313.577C80.0303 312.711 76.8194 313.049 74.0749 314.52C71.3304 315.99 69.2703 318.476 68.335 321.446C67.3997 324.416 67.6635 327.634 69.07 330.411C70.4766 333.189 72.9141 335.306 75.8615 336.31H75.8689Z" fill="#6C63FF"/>
<path d="M80.0539 391.549C85.907 394.561 108.323 392.693 108.323 392.693C108.323 392.693 96.8013 373.37 90.9482 370.359C89.5568 369.643 88.0381 369.209 86.4789 369.081C84.9196 368.952 83.3504 369.132 81.8607 369.61C80.371 370.088 78.9901 370.855 77.7967 371.867C76.6034 372.879 75.621 374.115 74.9057 375.507C74.1903 376.898 73.7561 378.417 73.6277 379.976C73.4992 381.535 73.6792 383.105 74.1573 384.594C74.6353 386.084 75.4021 387.465 76.4139 388.658C77.4256 389.852 78.6625 390.834 80.0539 391.549Z" fill="#6C63FF"/>
<path opacity="0.25" d="M99.6872 223.049C100.75 229.545 92.0627 250.3 92.0627 250.3C92.0627 250.3 77.2344 233.383 76.1715 226.888C75.6625 223.769 76.4132 220.576 78.2583 218.011C80.1035 215.447 82.8919 213.72 86.0103 213.211C89.1287 212.702 92.3215 213.452 94.8865 215.298C97.4514 217.143 99.1783 219.931 99.6872 223.049Z" fill="black"/>
<path opacity="0.25" d="M124.997 255.858C122.362 261.888 103.791 274.591 103.791 274.591C103.791 274.591 100.529 252.33 103.171 246.299C104.439 243.405 106.804 241.133 109.747 239.983C112.689 238.833 115.969 238.898 118.863 240.166C121.757 241.433 124.029 243.799 125.18 246.742C126.33 249.684 126.264 252.964 124.997 255.858Z" fill="black"/>
<path opacity="0.25" d="M134.186 317.467C128.864 321.334 106.419 322.929 106.419 322.929C106.419 322.929 114.848 302.063 120.169 298.195C122.725 296.335 125.915 295.567 129.037 296.059C132.159 296.551 134.957 298.263 136.817 300.819C138.677 303.375 139.445 306.564 138.953 309.686C138.461 312.808 136.749 315.607 134.193 317.467H134.186Z" fill="black"/>
<path opacity="0.25" d="M130.636 365.65C126.045 370.366 104.197 375.717 104.197 375.717C104.197 375.717 108.972 353.737 113.563 349.02C114.655 347.899 115.957 347.004 117.395 346.387C118.833 345.769 120.378 345.44 121.943 345.42C123.508 345.399 125.061 345.687 126.515 346.267C127.968 346.847 129.293 347.707 130.414 348.799C131.535 349.891 132.43 351.193 133.048 352.631C133.666 354.068 133.994 355.614 134.015 357.178C134.035 358.743 133.747 360.297 133.168 361.75C132.588 363.204 131.727 364.529 130.636 365.65Z" fill="black"/>
<path opacity="0.25" d="M79.301 279.868C84.7039 283.632 107.172 284.776 107.172 284.776C107.172 284.776 98.3144 264.11 92.941 260.323C91.6598 259.383 90.2034 258.709 88.6577 258.339C87.1119 257.97 85.5079 257.914 83.9401 258.174C82.3722 258.433 80.8722 259.004 79.5281 259.852C78.184 260.7 77.0231 261.808 76.1136 263.112C75.2041 264.415 74.5643 265.887 74.232 267.441C73.8997 268.995 73.8815 270.6 74.1785 272.161C74.4754 273.722 75.0816 275.208 75.9613 276.532C76.841 277.856 77.9765 278.99 79.301 279.868Z" fill="black"/>
<path opacity="0.25" d="M75.8689 336.31C82.1427 338.288 103.917 332.657 103.917 332.657C103.917 332.657 89.3022 315.555 83.021 313.577C80.0303 312.711 76.8194 313.049 74.0749 314.52C71.3304 315.99 69.2703 318.476 68.335 321.446C67.3997 324.416 67.6635 327.634 69.07 330.411C70.4766 333.189 72.9141 335.306 75.8615 336.31H75.8689Z" fill="black"/>
<path opacity="0.25" d="M80.0539 391.549C85.907 394.561 108.323 392.693 108.323 392.693C108.323 392.693 96.8013 373.37 90.9482 370.359C89.5568 369.643 88.0381 369.209 86.4789 369.081C84.9196 368.952 83.3504 369.132 81.8607 369.61C80.371 370.088 78.9901 370.855 77.7967 371.867C76.6034 372.879 75.621 374.115 74.9057 375.507C74.1903 376.898 73.7561 378.417 73.6277 379.976C73.4992 381.535 73.6792 383.105 74.1573 384.594C74.6353 386.084 75.4021 387.465 76.4139 388.658C77.4256 389.852 78.6625 390.834 80.0539 391.549Z" fill="black"/>
<path d="M117.638 417.25C117.638 417.25 75.0201 380.965 69.1153 337.609C66.7434 319.406 58.5307 302.462 45.7103 289.323C39.5931 283.135 32.9224 277.519 25.7817 272.546" stroke="#535461" stroke-width="2" stroke-miterlimit="10"/>
<path d="M21.8845 245.244C25.4864 250.75 25.9514 273.247 25.9514 273.247C25.9514 273.247 5.5431 263.792 1.94119 258.286C1.03372 256.978 0.397497 255.502 0.0700926 253.945C-0.257312 252.387 -0.26926 250.78 0.0349594 249.217C0.339179 247.655 0.953393 246.169 1.84133 244.848C2.72926 243.527 3.87291 242.398 5.20472 241.526C6.53653 240.655 8.0295 240.059 9.59546 239.774C11.1614 239.489 12.7686 239.521 14.3221 239.867C15.8755 240.214 17.3438 240.868 18.6402 241.792C19.9365 242.715 21.0347 243.889 21.8698 245.244H21.8845Z" fill="#6C63FF"/>
<path d="M58.3169 264.973C58.3169 271.557 46.5074 290.689 46.5074 290.689C46.5074 290.689 34.506 271.66 34.4764 265.084C34.4302 263.495 34.7023 261.912 35.2769 260.43C35.8514 258.947 36.7167 257.595 37.8218 256.452C38.9269 255.309 40.2495 254.398 41.7118 253.774C43.174 253.15 44.7464 252.825 46.3363 252.817C47.9262 252.81 49.5015 253.121 50.9695 253.731C52.4375 254.342 53.7685 255.24 54.8842 256.372C55.9999 257.505 56.8777 258.85 57.4659 260.327C58.0542 261.804 58.3411 263.384 58.3096 264.973H58.3169Z" fill="#6C63FF"/>
<path d="M91.6789 317.585C88.3796 323.276 68.5101 333.823 68.5101 333.823C68.5101 333.823 67.772 311.341 71.0565 305.642C72.6401 302.908 75.2453 300.914 78.2988 300.1C81.3524 299.286 84.6042 299.719 87.3389 301.302C90.0736 302.886 92.0672 305.491 92.8811 308.545C93.695 311.598 93.2625 314.85 91.6789 317.585Z" fill="#6C63FF"/>
<path d="M107.961 363.074C105.673 369.237 87.8703 383.002 87.8703 383.002C87.8703 383.002 83.3532 360.955 85.6117 354.763C86.7484 351.85 88.9838 349.501 91.8363 348.221C94.6888 346.941 97.93 346.833 100.861 347.92C103.793 349.007 106.18 351.202 107.508 354.033C108.836 356.863 108.999 360.102 107.961 363.052V363.074Z" fill="#6C63FF"/>
<path d="M26.2688 305.45C32.7346 306.705 53.7334 298.645 53.7334 298.645C53.7334 298.645 37.2739 283.308 30.8155 282.053C27.7427 281.522 24.5842 282.216 22.0173 283.987C19.4505 285.758 17.6799 288.464 17.085 291.525C16.4902 294.586 17.1186 297.759 18.8354 300.362C20.5522 302.965 23.2208 304.792 26.2688 305.45Z" fill="#6C63FF"/>
<path d="M45.9834 358.401C52.5229 357.663 70.156 343.699 70.156 343.699C70.156 343.699 49.8658 333.985 43.3262 334.723C41.7715 334.898 40.2664 335.377 38.8968 336.133C37.5271 336.889 36.3199 337.908 35.3439 339.13C33.3728 341.6 32.4634 344.751 32.8157 347.891C32.9902 349.446 33.4692 350.951 34.2254 352.32C34.9815 353.69 36 354.897 37.2228 355.873C39.6922 357.844 42.8435 358.754 45.9834 358.401Z" fill="#6C63FF"/>
<path d="M72.2079 407.249C78.777 407.625 98.5211 396.834 98.5211 396.834C98.5211 396.834 80.1572 383.836 73.5882 383.452C70.4683 383.331 67.4252 384.438 65.113 386.536C62.8009 388.635 61.4044 391.556 61.2236 394.673C61.0428 397.79 62.0922 400.854 64.1462 403.205C66.2002 405.557 69.0949 407.009 72.2079 407.249Z" fill="#6C63FF"/>
<path d="M495.211 551.561V583.048L487.143 581.808C478.95 580.546 470.706 579.291 462.447 578.214L461.509 563.024L461.435 561.658L460.373 544.453L491.97 550.882L492.886 551.067L495.211 551.561Z" fill="#3A3768"/>
<path opacity="0.1" d="M495.211 551.561V583.048L487.143 581.808C478.95 580.546 470.706 579.291 462.447 578.214L461.509 563.024L461.435 561.658L460.373 544.453L491.97 550.882L492.886 551.067L495.211 551.561Z" fill="black"/>
<path d="M456.232 548.601L446.762 561.658L445.758 563.024L444.098 565.319L436.606 575.653C420.368 574.656 404.13 575.084 388.202 578.288C376.097 580.723 364.302 584.724 352.655 589.359C347.813 581.779 340.366 572.545 329.722 565.334C328.563 564.544 327.36 563.784 326.12 563.038C325.331 562.573 324.533 562.116 323.714 561.673C318.679 558.949 313.32 556.87 307.764 555.488L456.232 548.601Z" fill="#3A3768"/>
<path d="M78.2529 532.644L96.3141 506.906L97.8937 504.692L98.8384 503.341L107.09 491.576H106.832C103.88 491.443 76.7546 490.344 47.5777 489.576C50.5301 494.344 53.5464 499.065 56.6267 503.74L57.5346 505.098L59.0698 507.371C64.0224 514.656 69.2186 521.764 74.7839 528.555L78.2529 532.644Z" fill="#3A3768"/>
<path d="M531.842 370.587L523.849 375.68L505.876 387.143L476.935 405.595L474.795 406.953L475.481 428.307L348.33 434.477H208.128L170.308 425.022L169.518 424.823L168.729 424.623L161.252 422.749L128.377 414.548L17.1312 401.595C17.804 398.319 18.6515 395.081 19.6703 391.896C19.8253 391.431 19.9655 390.981 20.1279 390.523C21.8563 385.435 23.8922 380.456 26.2246 375.614C84.822 371.503 152.306 370.75 170.013 370.624L174.442 370.587H531.842Z" fill="#3A3768"/>
<path opacity="0.1" d="M456.239 548.601L307.779 555.466C315.624 557.429 323.061 560.765 329.744 565.319H444.149L456.239 548.601Z" fill="black"/>
<path opacity="0.1" d="M107.09 491.554L98.8532 503.319L97.9084 504.67L96.3289 506.884H95.421H93.406L59.0846 507.298L57.5198 505.069L56.612 503.71C53.5218 499.046 50.5054 494.324 47.5629 489.546C76.7398 490.284 103.887 491.414 106.817 491.547L107.09 491.554Z" fill="black"/>
<path d="M491.97 407.012V563.024H300.22L297.475 536.91C297.475 536.91 274.49 535.581 248.022 531.286C246.502 531.027 244.967 530.776 243.417 530.503C237.113 529.411 230.677 528.149 224.366 526.687L223.104 526.392C220.742 525.841 218.407 525.258 216.1 524.643C213.834 524.052 211.605 523.418 209.42 522.768C206.313 521.831 203.309 520.849 200.423 519.816C190.436 516.199 181.97 511.866 176.501 506.685L172.419 506.582L126.797 505.43H125.971H125.712H124.886L97.8937 504.736L95.4063 504.677L57.5641 505.135L56.6562 503.777C53.5661 499.112 50.5497 494.391 47.6072 489.613C43.0753 482.284 38.6762 474.851 34.3215 467.47C26.8741 454.922 19.2864 441.961 16.7179 427.613C15.2242 419.018 15.3845 410.218 17.1903 401.683C17.863 398.408 18.7106 395.17 19.7293 391.985H170.323L171.238 392.258L176.235 393.734L177.025 393.97L177.815 394.207C191.433 398.266 219.451 406.363 226.654 406.363H239.276L304.627 406.525L365.084 406.695C408.868 406.798 451.796 406.917 474.773 406.976L491.97 407.012Z" fill="#3A3768"/>
<path opacity="0.1" d="M491.97 405.647V561.658H300.221L297.475 535.545C297.475 535.545 274.594 534.216 248.185 529.935C247.306 529.78 246.413 529.64 245.52 529.492C238.981 528.378 232.234 527.093 225.665 525.61L224.758 525.403L224.16 525.263L222.558 524.879C220.388 524.377 218.233 523.838 216.107 523.27C213.775 522.66 211.482 522.013 209.228 521.329C206.076 520.391 203.028 519.38 200.105 518.317C190.259 514.723 181.918 510.427 176.486 505.305L174.641 505.253L127.964 504.072H127.152H126.901H126.082L98.8458 503.334L96.5577 503.275H95.4137L56.6341 503.747C53.5439 499.083 50.5276 494.361 47.585 489.583C43.0531 482.254 38.6541 474.821 34.2993 467.44C26.8519 454.893 19.2643 441.932 16.6957 427.583C15.2021 418.989 15.3624 410.188 17.1681 401.654C17.8409 398.378 18.6884 395.141 19.7072 391.955C19.8622 391.49 20.0024 391.04 20.1648 390.583H170.323L171.386 390.915C172.441 391.232 174.228 391.778 176.553 392.465L177.335 392.701C177.586 392.775 177.844 392.863 178.117 392.937C191.853 396.974 219.524 404.953 226.677 404.953H239.962L306.037 405.123L366.332 405.278L476.921 405.573L491.97 405.647Z" fill="black"/>
<path opacity="0.1" d="M491.97 407.012V563.024H300.22L297.475 536.91C297.475 536.91 274.49 535.581 248.022 531.286C246.502 531.027 244.967 530.776 243.417 530.503C237.113 529.411 230.677 528.149 224.366 526.687L223.104 526.392C220.742 525.841 218.407 525.258 216.1 524.643C213.834 524.052 211.605 523.418 209.42 522.768C206.313 521.831 203.309 520.849 200.423 519.816C190.436 516.199 181.97 511.866 176.501 506.685L172.419 506.582L126.797 505.43H125.971H125.712H124.886L97.8937 504.736L95.4063 504.677L57.5641 505.135L56.6562 503.777C53.5661 499.112 50.5497 494.391 47.6072 489.613C43.0753 482.284 38.6762 474.851 34.3215 467.47C26.8741 454.922 19.2864 441.961 16.7179 427.613C15.2242 419.018 15.3845 410.218 17.1903 401.683C17.863 398.408 18.7106 395.17 19.7293 391.985H170.323L171.238 392.258L176.235 393.734L177.025 393.97L177.815 394.207C191.433 398.266 219.451 406.363 226.654 406.363H239.276L304.627 406.525L365.084 406.695C408.868 406.798 451.796 406.917 474.773 406.976L491.97 407.012Z" fill="black"/>
<path d="M531.842 370.595V395.306L491.978 425.088L474.795 406.968L531.842 370.595Z" fill="#3A3768"/>
<path opacity="0.1" d="M531.842 370.595V395.306L491.978 425.088L474.795 406.968L531.842 370.595Z" fill="black"/>
<path d="M552.472 397.838L531.842 395.306L491.978 425.088V440.67L552.472 397.838Z" fill="#3A3768"/>
<path d="M561.182 370.595V422.343L574.467 437.001L491.978 516.642V440.67L552.472 397.838L531.842 395.306V370.595H561.182Z" fill="#3A3768"/>
<path opacity="0.1" d="M561.182 370.595V422.343L574.467 437.001L491.978 516.642V440.67L552.472 397.838L531.842 395.306V370.595H561.182Z" fill="black"/>
<path opacity="0.1" d="M566.223 437.459L620.288 434.507L616.162 477.464L553.387 561.12L555.225 500.692H507.116L566.223 437.459Z" fill="black"/>
<path d="M567.596 437.459L621.661 434.507L617.543 477.464L554.768 561.12L556.598 500.692H508.496L567.596 437.459Z" fill="#3A3768"/>
<path opacity="0.1" d="M602.877 462.207H575.383L540.559 500.692H557.513L557.144 513.025L602.877 462.207Z" fill="black"/>
<path opacity="0.1" d="M601.046 462.207H573.552L538.729 500.692H555.683L555.306 513.025L601.046 462.207Z" fill="black"/>
<path d="M601.961 462.207H574.467L539.644 500.692H556.598L556.222 513.025L601.961 462.207Z" fill="#DCE6F2"/>
<path opacity="0.1" d="M555.683 560.204L492.893 562.116V515.727L509.412 499.776H557.513L555.683 560.204Z" fill="black"/>
<path d="M554.768 561.12L491.978 563.031V516.642L508.496 500.692H556.598L554.768 561.12Z" fill="#3A3768"/>
<path opacity="0.1" d="M554.768 561.12L491.978 563.031V516.642L508.496 500.692H556.598L554.768 561.12Z" fill="black"/>
<path d="M732.206 584.141C729.116 586.478 725.728 588.392 722.131 589.831C722.131 589.831 650.698 594.031 640.623 594.031C635.456 594.031 625.485 595.404 616.908 596.769L614.332 597.168C611.003 597.707 608.014 598.216 605.777 598.644L604.803 598.821C602.825 599.161 601.644 599.382 601.644 599.382C601.644 599.382 589.414 601.899 591.089 604.136C591.606 604.807 592.101 606.763 592.566 609.155C580.822 604.357 569.02 599.737 556.893 596.024C551.852 594.481 546.752 593.072 541.63 591.846C541.91 582.642 541.814 573.837 540.736 569.438C540.035 566.888 539.705 564.251 539.755 561.607C539.755 561.297 539.755 561.001 539.821 560.714C540.235 556.794 542.035 555.311 542.412 552.373C542.692 550.159 547.948 548.513 553.83 547.044L555.21 546.704L556.118 546.483C559.669 545.627 563.241 544.8 565.928 543.892C566.134 543.826 566.326 543.759 566.511 543.686C567.196 543.445 567.866 543.164 568.518 542.844C568.681 542.748 568.843 542.667 568.991 542.571C574.593 539.213 631.404 530.26 635.877 528.865C640.35 527.47 647.067 521.307 647.067 521.307C647.23 520.314 647.619 519.372 648.203 518.553C650.927 514.597 657.444 512.309 658.094 512.088H658.138L663.578 507.888C663.578 507.888 685.293 504.655 706.823 507.888C708.454 508.132 710.07 508.412 711.687 508.737C717.611 509.845 723.368 511.708 728.818 514.28C734.989 517.306 740.281 521.417 743.897 526.975C745.874 530.031 747.296 533.411 748.097 536.962C748.697 539.551 749.128 542.177 749.389 544.822C749.448 545.413 749.5 545.988 749.529 546.564C750.791 566.316 740.532 578.007 732.206 584.141Z" fill="#F3B4B3"/>
<path d="M446.696 311.4H419.548L423.977 296.844H437.735C437.735 296.844 489.225 259.63 492.303 269.705C495.38 279.78 446.696 311.4 446.696 311.4Z" fill="#FFCACE"/>
<path d="M490.908 387.239C486.154 395.358 425.151 384.442 425.151 384.442L409.2 368.491L419.534 362.889L426.058 366.69L432.967 370.72C432.967 370.72 495.668 379.12 490.908 387.239Z" fill="#FFCACE"/>
<path d="M309.299 465.588C309.299 465.588 304.738 468.429 298.877 472.068C290.234 477.397 278.801 484.35 275.125 486.018C268.97 488.816 262.821 498.61 254.975 506.449C250.458 510.959 247.993 517.985 246.709 523.137C246.159 525.289 245.745 527.473 245.469 529.677L233.711 534.423L216.085 532.747V503.12C216.085 503.12 218.602 490.801 223.363 490.248C223.803 490.187 224.233 490.066 224.64 489.886C229.718 487.745 238.53 477.287 245.469 473.168C251.676 469.478 256.474 458.34 257.979 454.494C258.304 453.653 258.474 453.166 258.474 453.166L279.879 442.094L309.299 465.588Z" fill="#FFCACE"/>
<path opacity="0.1" d="M309.299 465.588C309.299 465.588 304.738 468.429 298.877 472.068C291.304 467.189 282.905 461.322 279.628 457.306C274.144 450.619 261.832 453.365 257.979 454.435C258.304 453.594 258.474 453.107 258.474 453.107L279.879 442.035L309.299 465.588Z" fill="black"/>
<path d="M384.851 378.839C384.851 378.839 381.492 384.744 381.492 387.239C381.492 389.734 365.992 405.691 365.992 405.691L335.782 440.123C335.782 440.123 324.829 448.501 325.67 456.915C326.511 465.329 314.953 479.161 314.953 479.161C314.953 479.161 287.887 463.661 281.333 455.653C274.904 447.822 259.094 452.944 258.525 453.129C259.448 452.169 303.933 406.459 313.078 398.569C322.223 390.678 313.078 390.597 313.078 387.652C313.078 385.696 282.993 375.518 262.976 368.956C252.982 365.686 245.498 363.31 245.498 363.31L261.862 327.21L289.171 320.072C289.171 320.072 305.203 324.619 308.48 323.851C309.023 323.772 309.578 323.846 310.081 324.065C314.001 325.505 320.651 332.664 320.651 332.664C320.651 332.664 342.056 339.381 360.11 343.581C378.163 347.78 384.851 378.839 384.851 378.839Z" fill="#575988"/>
<path opacity="0.1" d="M246.738 523.137C246.189 525.289 245.775 527.473 245.498 529.677L233.74 534.423L216.114 532.747V503.12C216.114 503.12 218.631 490.801 223.392 490.248C223.833 490.187 224.262 490.066 224.669 489.886C211.789 495.481 224.366 525.787 224.366 525.787C236.641 514.671 243.52 518.945 246.738 523.137Z" fill="black"/>
<path d="M248.288 529.116L245.498 552.617C245.498 552.617 245.218 575.564 243.284 586.2C241.35 596.836 231.519 595.153 231.519 595.153C211.937 587.876 209.139 560.736 211.509 555.134C213.878 549.531 210.254 528.562 210.254 528.562H202.925C202.925 528.562 198.452 516.531 198.732 505.622C198.828 501.828 201.847 498.802 205.729 496.484C213.007 492.137 223.363 490.233 223.363 490.233C210.483 495.82 223.495 527.448 223.495 527.448C242.125 510.641 248.288 529.116 248.288 529.116Z" fill="#575988"/>
<path opacity="0.1" d="M427.062 311.399H419.548L423.977 296.844H429.387C428.361 300.188 426.715 306.432 427.062 311.399Z" fill="black"/>
<path d="M401.679 209.941L408.617 199.999C408.617 199.999 411.902 226.467 404.041 233.213L394.291 257.408L387.788 287.338C387.788 287.338 400.454 290.526 401.679 292.29C402.904 294.054 428.509 294.468 428.509 294.468C428.509 294.468 421.372 313.776 428.509 317.976L369.321 313.776L355.054 303.701L365.963 241.583L382.282 217.558L401.679 209.941Z" fill="#575988"/>
<path opacity="0.1" d="M401.679 209.941L408.617 199.999C408.617 199.999 411.902 226.467 404.041 233.213L394.291 257.408L387.788 287.338C387.788 287.338 400.454 290.526 401.679 292.29C402.904 294.054 428.509 294.468 428.509 294.468C428.509 294.468 421.372 313.776 428.509 317.976L369.321 313.776L355.054 303.701L365.963 241.583L382.282 217.558L401.679 209.941Z" fill="black"/>
<path d="M658.123 483.708L589.694 450.494C589.694 450.494 565.625 476.785 561.706 460.31C557.786 443.836 574.025 432.602 574.025 432.602L690.157 459.749L658.123 483.708Z" fill="#A0616A"/>
<path opacity="0.05" d="M658.028 483.106L589.599 449.891C589.599 449.891 565.53 476.182 561.61 459.708C557.691 443.234 573.929 432 573.929 432L690.061 459.147L658.028 483.106Z" fill="#5F3900"/>
<path d="M365.963 266.767L355.711 279.994L354.463 281.603L345.134 293.634C345.134 293.634 336.402 297.819 329.634 301.236C327.833 302.144 326.165 303 324.836 303.701C321.339 305.698 318.039 308.024 314.982 310.647C312.827 312.433 311.403 313.776 311.403 313.776L298.811 316.3C298.811 316.3 212.764 268.863 233.327 260.05C238.132 257.991 243.572 254.47 249.093 250.278C263.788 239.133 279.03 223.271 284.285 217.639C285.532 216.311 286.219 215.558 286.219 215.558L298.766 208.428L339.044 243.421L365.963 266.767Z" fill="#FFCACE"/>
<path d="M436.901 179.878C431.798 180.901 426.979 183.024 422.781 186.1C414.493 191.924 407.577 200.685 402.366 208.856C398.104 215.518 394.422 222.534 391.361 229.825C391.361 229.825 335.324 155.949 368.9 162.245C373.92 163.226 379.029 163.671 384.142 163.574C390.399 163.52 396.579 162.184 402.299 159.647C410.544 155.861 413.813 150.716 413.813 150.716C413.813 150.716 464.609 174.837 436.901 179.878Z" fill="#FFCACE"/>
<path d="M695.471 361.487C695.471 361.487 656.012 398.989 656.573 386.397C656.603 384.588 656.412 382.781 656.005 381.017C654.226 372.381 648.676 359.833 644.277 350.755C641.014 344.009 638.372 339.137 638.372 339.137C638.372 339.137 687.625 317.312 685.662 324.862C685.019 327.328 685.846 332.074 687.234 337.358C688.666 342.798 690.71 348.814 692.4 353.486C694.091 358.158 695.471 361.487 695.471 361.487Z" fill="#A0616A"/>
<path opacity="0.1" d="M436.901 179.878C431.798 180.901 426.979 183.024 422.781 186.1C413.422 181.413 412.891 172.032 409.784 161.869C409.459 160.821 410.352 155.772 410.123 154.687C418.368 150.901 413.813 150.716 413.813 150.716C413.813 150.716 464.609 174.837 436.901 179.878Z" fill="black"/>
<path d="M480.353 150.716C480.353 158.354 478.088 165.82 473.845 172.171C469.601 178.521 463.57 183.471 456.514 186.394C449.457 189.317 441.693 190.081 434.202 188.591C426.711 187.101 419.83 183.423 414.429 178.023C409.028 172.622 405.35 165.741 403.86 158.25C402.37 150.759 403.135 142.994 406.058 135.938C408.981 128.882 413.93 122.85 420.281 118.607C426.632 114.364 434.098 112.099 441.736 112.099C446.816 112.068 451.851 113.045 456.551 114.975C461.25 116.904 465.52 119.747 469.112 123.34C472.704 126.932 475.548 131.201 477.477 135.901C479.407 140.6 480.384 145.636 480.353 150.716Z" fill="#FFCACE"/>
<path opacity="0.1" d="M365.963 266.767L355.711 279.994L354.463 281.603C354.035 281.64 353.614 281.669 353.194 281.676C348.529 281.765 344.735 279.772 342.86 274.296C341.452 270.58 339.494 267.097 337.051 263.962C335.811 262.272 334.424 260.56 332.933 258.796C317.005 240.343 288.647 220.629 284.263 217.61C285.51 216.281 286.197 215.528 286.197 215.528L298.744 208.398L339.022 243.391L365.963 266.767Z" fill="black"/>
<path opacity="0.1" d="M402.366 208.856C398.104 215.518 394.422 222.533 391.361 229.825C391.361 229.825 335.324 155.949 368.9 162.245C373.92 163.226 379.029 163.671 384.142 163.574C387.545 167.22 392.394 179.229 395.324 187.075C396.556 190.513 397.438 194.066 397.959 197.681C398.712 202.589 401.664 207.697 402.366 208.856Z" fill="black"/>
<path d="M403.118 242.417C400.402 248.322 392.829 259.63 392.829 259.63C387.713 264.043 382.287 268.084 376.591 271.72C374.598 272.982 372.51 274.2 370.413 275.299C365.306 278.001 360.139 279.92 355.711 279.994C351.046 280.09 347.252 278.089 345.377 272.613C343.968 268.885 342.007 265.389 339.561 262.242C338.321 260.56 336.933 258.847 335.442 257.113C318.141 237.088 286.189 215.528 286.189 215.528C286.536 215.049 297.681 199.836 308.007 189.311C318.503 178.623 368.45 160.127 369.712 158.451C369.784 158.353 369.863 158.259 369.948 158.171C370.436 157.672 371.028 157.287 371.682 157.043C372.335 156.799 373.034 156.702 373.729 156.758C374.425 156.814 375.099 157.023 375.705 157.369C376.31 157.715 376.832 158.191 377.233 158.761C378.576 160.694 380.302 162.33 382.304 163.566C385.707 165.618 391.235 179.273 394.453 187.887C395.688 191.326 396.571 194.883 397.088 198.5C397.944 204.073 401.65 209.919 401.65 209.919C401.65 209.919 405.842 236.542 403.118 242.417Z" fill="#575988"/>
<path opacity="0.1" d="M426.073 366.69C424.693 370.027 420.168 372.957 415.806 375.097L409.2 368.491L419.534 362.889L426.073 366.69Z" fill="black"/>
<path opacity="0.1" d="M379.396 234.453C379.396 234.453 374.163 258.072 370.421 275.307C365.306 278.001 360.139 279.92 355.711 279.994L345.134 293.634C345.134 293.634 336.402 297.819 329.634 301.236C329.634 300.136 329.597 298.963 329.597 297.745C329.652 284.869 331.402 272.056 334.8 259.637C335.022 258.825 335.243 257.991 335.472 257.142C336.631 252.883 337.878 248.174 339.089 243.414C341.045 235.782 342.912 228.032 344.145 221.854C347.924 202.966 364.715 205.904 364.715 205.904C384.017 203.8 379.396 234.453 379.396 234.453Z" fill="black"/>
<path opacity="0.1" d="M384.43 236.121C384.43 236.121 380.186 255.312 376.599 271.719C374.606 272.982 372.517 274.199 370.421 275.299C365.306 278.001 360.139 279.92 355.711 279.994C351.046 280.089 347.252 278.089 345.377 272.613C343.968 268.884 342.007 265.389 339.561 262.242C339.65 261.895 339.746 261.541 339.842 261.187C342.934 249.813 346.994 234.276 349.149 223.5C352.928 204.612 369.72 207.549 369.72 207.549C389.05 205.483 384.43 236.121 384.43 236.121Z" fill="black"/>
<path d="M368.059 205.903C368.059 205.903 351.275 202.951 347.496 221.854C345.34 232.623 341.273 248.167 338.181 259.541C334.73 272.117 332.968 285.095 332.94 298.136C332.94 303.236 333.221 307.48 334.062 308.742C336.579 312.521 338.683 315.459 342.041 318.397C345.399 321.334 404.041 378.839 404.041 378.839C404.041 378.839 425.571 372.123 423.888 363.731C423.888 363.731 389.892 331.409 388.209 325.113C388.209 325.113 368.9 298.918 370.162 292.29C371.425 285.662 382.754 234.453 382.754 234.453C382.754 234.453 387.367 203.8 368.059 205.903Z" fill="#575988"/>
<path opacity="0.1" d="M315.794 309.001L314.975 310.669C312.82 312.455 311.395 313.798 311.395 313.798L298.803 316.323C298.803 316.323 212.756 268.885 233.319 260.072C238.124 258.013 243.564 254.492 249.085 250.3C263.478 251.437 283.695 266.789 283.695 266.789C301.151 277.602 315.794 309.001 315.794 309.001Z" fill="black"/>
<path opacity="0.1" d="M310.059 324.065L291.245 328.494L262.976 368.978C252.982 365.709 245.498 363.332 245.498 363.332L261.862 327.232L289.171 320.094C289.171 320.094 305.203 324.641 308.48 323.873C309.014 323.792 309.56 323.858 310.059 324.065Z" fill="black"/>
<path d="M78.2529 532.644C82.1058 537.131 86.1284 541.501 90.3651 545.597L90.6529 545.878L90.8301 546.048L90.9629 546.18C91.1179 546.328 91.2729 546.483 91.4353 546.623C97.1786 552.133 103.244 557.296 109.6 562.086C115.261 555.444 123.764 547.568 123.764 547.568L164.898 512.309C167.239 510.182 169.755 508.256 172.419 506.552C173.157 506.094 173.895 505.652 174.633 505.238C175.545 504.743 176.484 504.3 177.446 503.91C183.756 501.393 189.639 485.457 189.639 485.457L220.698 443.482L225.215 434.477L239.298 406.319L239.977 404.953L251.787 381.334L259.308 370.565L260.917 368.262L288.728 328.45L308.472 323.851L314.968 310.661C314.968 310.661 300.324 279.285 282.868 268.442C282.868 268.442 261.382 252.123 246.937 251.887L246.664 252.071C242.628 254.843 238.439 257.386 234.117 259.689C233.467 260.028 232.818 260.345 232.198 260.633C229.526 261.866 227.156 262.641 225.806 262.331C221.193 261.275 188.901 299.479 185.948 316.264C182.996 333.048 179.653 333.897 179.653 333.897C179.653 333.897 174.191 349.397 175.032 352.349C175.652 354.519 171.253 362.601 170.072 370.58C169.583 373.311 169.701 376.115 170.419 378.795C171.549 382.694 171.898 386.777 171.445 390.811C171.445 391.254 171.356 391.69 171.297 392.125C170.766 396.265 169.47 400.269 167.474 403.935C165.481 407.352 163.68 416.194 161.281 422.69C160.159 425.775 158.89 428.321 157.406 429.539C152.786 433.318 146.069 450.531 146.069 450.531C146.069 450.531 131.381 469.418 127.617 470.673C125.1 471.515 114.014 483.531 106.906 491.458C103.326 495.429 100.75 498.381 100.75 498.381L96.6241 503.172L95.3767 504.596L93.3913 506.914L74.7839 528.51L78.2529 532.644Z" fill="#575988"/>
<path d="M244.096 262.67C244.022 262.744 239.291 267.099 234.124 271.705C230.434 274.975 226.522 278.348 223.924 280.34C217.871 284.968 198.865 318.721 198.039 320.235L189.639 352.925C189.329 354.438 187.336 363.937 185.402 370.587C184.435 373.894 183.498 376.492 182.782 377.068C181.815 377.85 179.83 385.187 178.11 392.885C178.014 393.313 177.911 393.742 177.822 394.17C177.084 397.521 176.346 400.871 175.792 403.691L170.293 425.052L158.174 472.12C157.975 472.578 153.804 482.025 147.405 484.166C145.575 484.778 137.987 492.787 127.978 504.057L126.797 505.401C116.235 517.358 103.208 532.644 91.4722 546.668C91.3098 546.527 91.1548 546.372 90.9998 546.225L90.867 546.092C101.385 533.581 114.671 517.941 125.749 505.415L126.93 504.072C137.064 492.639 145.147 484.084 147.176 483.405C153.214 481.39 157.369 471.972 157.414 471.876L169.489 424.882L174.988 403.477C175.187 402.481 175.992 398.51 177.025 393.882C177.113 393.461 177.217 393.033 177.313 392.597C178.937 385.475 181.003 377.378 182.273 376.359C182.826 375.916 183.646 373.658 184.553 370.536C186.03 365.48 187.698 358.173 188.834 352.681L197.278 319.821C198.083 318.345 217.118 284.393 223.414 279.617C225.998 277.646 229.895 274.281 233.578 271.004C237.822 267.254 241.763 263.623 243.077 262.412C243.35 262.154 243.513 262.014 243.527 261.999L244.096 262.67Z" fill="#575988"/>
<path d="M243.262 262.671C243.18 262.737 238.744 266.856 233.762 271.284C229.939 274.679 225.798 278.266 223.089 280.341C217.03 284.968 197.994 318.722 197.197 320.235L188.82 352.925C188.51 354.438 186.509 363.937 184.576 370.588C183.609 373.894 182.671 376.492 181.955 377.068C181.003 377.806 179.084 385.054 177.342 392.649C177.239 393.077 177.15 393.505 177.047 393.933C176.272 397.366 175.571 400.798 174.966 403.691L169.518 424.882L157.333 472.12C157.133 472.578 152.963 482.025 146.564 484.166C144.733 484.778 137.153 492.772 127.167 504.028L125.971 505.371C115.519 517.181 102.647 532.297 90.9629 546.181L90.8301 546.048L90.6529 545.878L90.3651 545.597C100.839 533.16 113.94 517.727 124.886 505.349L126.074 504.006C136.208 492.587 144.276 484.04 146.298 483.339C152.343 481.324 156.498 471.906 156.535 471.81L168.699 424.609L174.139 403.477C174.331 402.466 175.158 398.377 176.22 393.66C176.316 393.24 176.412 392.812 176.516 392.376C178.132 385.313 180.169 377.378 181.417 376.382C181.97 375.939 182.789 373.68 183.697 370.558C185.174 365.502 186.849 358.195 187.978 352.703L196.422 319.843C197.234 318.367 216.262 284.415 222.558 279.639C225.259 277.573 229.4 273.993 233.224 270.598C238.176 266.169 242.597 262.095 242.671 262.021L243.062 262.434L243.262 262.671Z" fill="#DCE6F2"/>
<path opacity="0.1" d="M276.557 286.496C276.557 286.496 267.043 308.322 274.343 316.301L276.557 286.496Z" fill="black"/>
<path opacity="0.1" d="M290.825 298.808C290.825 298.808 285.23 314.197 288.308 316.3L290.825 298.808Z" fill="black"/>
<path opacity="0.1" d="M298.058 307.525C298.058 307.525 295.77 315.289 298.058 317.946V307.525Z" fill="black"/>
<path opacity="0.1" d="M169.098 471.182C169.098 471.182 189.248 464.193 188.687 468.105C188.126 472.017 169.098 471.182 169.098 471.182Z" fill="black"/>
<path opacity="0.1" d="M165.178 490.218C165.178 490.218 176.11 495.252 178.9 490.218C181.69 485.184 165.178 490.218 165.178 490.218Z" fill="black"/>
<path opacity="0.1" d="M326.925 434.248C326.925 434.248 304.538 438.167 304.258 442.087C303.977 446.006 326.925 434.248 326.925 434.248Z" fill="black"/>
<path opacity="0.1" d="M315.595 335.188C315.595 335.188 306.502 345.522 307.897 349.456C309.292 353.39 315.595 335.188 315.595 335.188Z" fill="black"/>
<path opacity="0.1" d="M480.353 150.716C480.357 154.507 479.8 158.278 478.699 161.906C477.957 161.592 477.133 161.53 476.352 161.728C476.176 163.03 475.494 164.209 474.455 165.013L469.333 158.747C469.192 158.535 468.995 158.367 468.765 158.259C468.248 158.068 467.739 158.503 467.289 158.806C465.569 159.928 463.207 159.352 461.472 158.252C459.738 157.152 458.313 155.58 456.52 154.562C454.806 153.628 452.853 153.226 450.91 153.407C448.967 153.589 447.122 154.345 445.611 155.58C444.207 156.919 442.968 158.42 441.92 160.053C440.465 162.228 438.566 164.069 436.348 165.456C435.234 166.144 433.979 166.568 432.676 166.696C431.374 166.824 430.059 166.652 428.834 166.194C428.088 165.775 427.308 165.422 426.501 165.138C423.977 164.518 421.711 166.74 420.087 168.777C418.463 170.814 416.397 173.117 413.791 172.733C409.008 171.995 409.437 163.574 404.846 162.046H404.801C403.176 156.735 402.716 151.136 403.451 145.631C404.187 140.126 406.101 134.845 409.064 130.147C412.026 125.449 415.967 121.446 420.618 118.41C425.268 115.374 430.519 113.376 436.012 112.554C441.504 111.732 447.11 112.104 452.445 113.646C457.781 115.187 462.722 117.861 466.93 121.486C471.138 125.11 474.515 129.6 476.83 134.648C479.145 139.696 480.344 145.184 480.345 150.738L480.353 150.716Z" fill="black"/>
<path d="M476.19 114.446C471.761 111.531 466.794 109.619 462.218 106.969C455.944 103.323 450.408 98.2818 443.625 95.7279C440.092 94.5368 436.451 93.6963 432.753 93.2184C430.657 92.8789 428.494 92.5394 426.428 93.0118C423.593 93.6465 421.313 95.691 418.759 97.0713C412.633 100.385 404.787 99.9499 399.214 104.135C393.449 108.475 391.914 116.336 390.755 123.458C388.777 135.644 386.563 148.14 380.134 158.673C379.759 159.145 379.572 159.739 379.61 160.341C379.768 160.813 380.07 161.224 380.474 161.514C384.223 164.792 389.412 167.7 393.974 165.692C395.893 164.843 397.354 163.242 399.022 161.965C400.69 160.688 402.853 159.699 404.846 160.356C409.444 161.876 409.009 170.313 413.799 171.036C416.375 171.42 418.478 169.124 420.095 167.087C421.711 165.05 423.977 162.828 426.509 163.448C427.317 163.732 428.099 164.082 428.849 164.496C431.233 165.544 434.089 165.072 436.355 163.758C438.577 162.373 440.477 160.528 441.928 158.348C442.978 156.72 444.217 155.221 445.618 153.883C447.128 152.646 448.973 151.889 450.916 151.706C452.859 151.523 454.813 151.924 456.527 152.857C458.321 153.875 459.738 155.44 461.48 156.547C463.222 157.654 465.576 158.223 467.296 157.093C467.761 156.791 468.27 156.355 468.772 156.547C469 156.658 469.196 156.826 469.34 157.034L474.455 163.301C475.496 162.498 476.18 161.318 476.36 160.016C477.659 159.61 479.002 160.311 480.279 160.754C481.556 161.197 483.276 161.337 484.014 160.193C484.612 159.271 484.213 158.045 484.265 156.946C484.368 154.945 486.007 153.351 487.763 152.406C489.52 151.462 491.505 150.93 493.196 149.875C496.384 147.867 498.185 144.036 498.215 140.279C498.166 137.055 497.153 133.919 495.307 131.275C492.856 127.628 490.339 128.78 487.106 126.89C485.217 125.791 484.649 123.584 483.564 121.812C481.668 118.852 479.152 116.338 476.19 114.446Z" fill="#863912"/>
<path opacity="0.1" d="M681.477 334.347C675.476 344.142 670.449 353.656 658.131 353.656C653.356 353.658 648.635 352.652 644.277 350.703C641.014 343.957 638.372 339.086 638.372 339.086C638.372 339.086 687.625 317.26 685.662 324.811C685.034 327.298 680.082 329.07 681.477 334.347Z" fill="black"/>
<path d="M658.131 351.973C676.984 351.973 692.268 336.689 692.268 317.836C692.268 298.982 676.984 283.699 658.131 283.699C639.277 283.699 623.994 298.982 623.994 317.836C623.994 336.689 639.277 351.973 658.131 351.973Z" fill="#A0616A"/>
<path opacity="0.1" d="M749.514 546.55C749.207 546.453 748.923 546.296 748.677 546.088C748.431 545.88 748.229 545.626 748.082 545.339C746.119 541.427 709.738 535.825 709.738 535.825L701.878 521.277C701.878 521.277 682.849 522.672 679.491 519.063C676.133 515.454 657.939 514.863 658.086 513.749C658.119 513.192 658.102 512.634 658.035 512.08H658.086L663.526 507.881C663.526 507.881 738.812 496.684 748.038 536.984C748.788 540.127 749.282 543.326 749.514 546.55Z" fill="black"/>
<path opacity="0.1" d="M695.471 361.487C695.471 361.487 656.012 398.989 656.573 386.398C656.603 384.588 656.412 382.781 656.005 381.017L656.116 380.596C656.116 380.596 666.109 370.152 668.626 365.391C670.368 362.114 684.126 356.534 692.437 353.442C694.128 358.158 695.471 361.487 695.471 361.487Z" fill="black"/>
<path d="M698.829 351.973C698.829 351.973 671.121 361.494 668.567 366.247C666.013 371.001 656.116 381.452 656.116 381.452L647.081 420.254L652.396 473.707C652.396 473.707 653.798 483.782 651.835 487.413C649.871 491.045 649.318 499.171 653.517 501.127C657.717 503.083 658.3 510.922 658.145 512.044C657.99 513.165 676.184 513.719 679.55 517.358C682.916 520.997 701.937 519.572 701.937 519.572L709.738 534.12C709.738 534.12 746.119 539.715 748.082 543.634C750.046 547.553 761.508 543.073 753.987 532.437C746.466 521.801 750.348 505.017 750.348 505.017C750.348 505.017 748.134 431.141 736.324 413.788C736.324 413.788 719.533 373.496 716.735 371.813C713.938 370.13 697.146 358.409 698.829 351.973Z" fill="#DCE6F2"/>
<path opacity="0.1" d="M698.829 479.161C698.829 479.161 748.636 519.019 745.278 526.311C741.919 533.603 698.829 479.161 698.829 479.161Z" fill="black"/>
<path opacity="0.1" d="M701.782 503.076C701.782 503.076 730.855 517.579 726.81 526.983L701.782 503.076Z" fill="black"/>
<path opacity="0.1" d="M666.929 466.953C666.929 466.953 682.598 466.215 683.167 469.123L666.929 466.953Z" fill="black"/>
<path opacity="0.1" d="M663.57 479.161C663.57 479.161 686.518 484.896 686.518 488.255L663.57 479.161Z" fill="black"/>
<path d="M684.303 442.884L658.131 466.828C658.131 466.828 641.154 473.138 638.387 479.161C635.619 485.184 614.878 488.255 613.764 483.708C612.649 479.161 581.863 454.118 581.863 454.118C581.863 454.118 565.071 439.009 561.152 427.834C557.233 416.659 542.7 407.256 542.7 407.256C542.7 407.256 498.488 395.373 505.204 378.862C511.921 362.35 557.211 392.553 557.211 392.553C557.211 392.553 585.199 412.696 589.687 418.859C594.175 425.022 626.06 438.566 626.06 438.566C625.765 435.702 631.515 428.617 637.073 422.498C642.143 416.91 647.052 412.164 647.052 412.164L684.008 442.67L684.303 442.884Z" fill="#A0616A"/>
<path opacity="0.1" d="M703.302 541.708C703.302 541.708 726.81 569.969 725.445 575.564C724.08 581.159 703.302 541.708 703.302 541.708Z" fill="black"/>
<path opacity="0.1" d="M565.064 568.847C565.625 569.689 567.861 579.181 578.497 584.798L565.064 568.847Z" fill="black"/>
<path opacity="0.1" d="M589.133 576.826C589.133 576.826 588.572 587.898 596.691 590.673C604.81 593.448 589.133 576.826 589.133 576.826Z" fill="black"/>
<path d="M700.254 340.739C700.136 338.643 699.537 336.602 698.505 334.774C697.472 332.947 696.032 331.381 694.297 330.199C695.576 329.697 696.64 328.765 697.305 327.563C697.971 326.361 698.196 324.965 697.943 323.615C697.67 324.53 696.578 324.877 695.648 325.091C695.102 325.217 694.622 325.305 694.172 325.379C695.312 323.211 696.251 320.943 696.977 318.603C698.349 313.621 697.619 308.322 696.453 303.288C694.888 296.49 692.304 289.5 686.769 285.072C684.253 283.231 681.527 281.695 678.65 280.496C676.058 279.179 673.337 278.132 670.531 277.373C667.682 276.709 664.729 276.635 661.821 276.251C656.182 275.513 650.75 273.587 645.044 273.299C639.339 273.011 633.028 274.701 630.105 279.44C629.179 280.872 628.744 282.566 628.865 284.267C629.175 287.256 631.655 289.7 634.482 290.91C637.309 292.121 640.328 292.143 643.184 293.058C646.542 294.136 649.827 295.501 653.185 296.667C654.979 297.287 656.839 297.959 658.168 299.287C660.286 301.398 660.544 304.609 661.053 307.517C661.831 311.947 663.447 316.189 665.814 320.013C666.648 321.364 667.6 322.722 667.814 324.279C668.08 326.176 667.364 328.523 668.892 329.741C670.08 330.679 671.844 330.214 673.173 329.417C674.502 328.619 675.623 327.52 677.122 327.202C678.923 326.818 680.812 327.697 682.141 328.915C683.192 329.873 684.024 331.047 684.58 332.356C685.135 333.666 685.401 335.08 685.359 336.502C685.285 338.266 684.739 340.097 685.359 341.757C685.942 343.285 688.252 344.201 689.33 343.145C689.414 343.331 689.51 343.511 689.618 343.684C690.747 345.411 692.888 346.216 694.947 346.422C695.967 346.588 697.014 346.452 697.958 346.031C699.796 345.072 700.35 342.761 700.254 340.739Z" fill="#1F1B1B"/>
<path opacity="0.1" d="M210.232 528.547H202.925C202.925 528.547 198.452 516.516 198.732 505.607C198.828 501.814 201.847 498.787 205.729 496.47L210.232 528.547Z" fill="black"/>
<g opacity="0.1">
<path opacity="0.1" d="M391.634 120.1C391.907 118.424 392.202 116.697 392.571 114.992C391.809 117.776 391.215 120.603 390.792 123.458C389.988 128.433 389.139 133.452 387.98 138.368C389.508 132.345 390.727 126.247 391.634 120.1Z" fill="black"/>
<path opacity="0.1" d="M494.067 146.575C492.376 147.638 490.376 148.162 488.634 149.107C486.892 150.052 485.239 151.646 485.136 153.646C485.114 153.993 485.114 154.34 485.136 154.687C485.834 153.761 486.732 153.004 487.763 152.473C489.52 151.528 491.498 150.997 493.188 149.941C494.591 148.995 495.764 147.745 496.62 146.285C497.476 144.825 497.993 143.191 498.134 141.505C497.342 143.579 495.919 145.352 494.067 146.575Z" fill="black"/>
<path opacity="0.1" d="M481.187 157.455C479.91 156.982 478.567 156.281 477.268 156.717C477.088 158.019 476.404 159.199 475.363 160.001L470.248 153.735C470.104 153.526 469.908 153.359 469.68 153.248C469.163 153.063 468.654 153.491 468.204 153.794C466.484 154.923 464.129 154.347 462.388 153.248C460.646 152.148 459.228 150.576 457.435 149.557C455.72 148.614 453.762 148.205 451.813 148.382C449.864 148.56 448.013 149.316 446.496 150.554C445.097 151.88 443.858 153.367 442.806 154.982C441.355 157.162 439.455 159.007 437.233 160.392C434.967 161.677 432.111 162.149 429.727 161.131C428.978 160.717 428.195 160.366 427.387 160.083C424.855 159.462 422.597 161.684 420.973 163.721C419.349 165.758 417.283 168.054 414.677 167.67C409.887 166.932 410.322 158.51 405.724 156.99C403.731 156.333 401.568 157.322 399.9 158.599C398.232 159.876 396.771 161.477 394.852 162.289C390.29 164.297 385.102 161.389 381.352 158.112C381.149 157.944 380.964 157.756 380.798 157.551C380.592 157.912 380.392 158.289 380.178 158.628C379.797 159.097 379.609 159.694 379.654 160.297C379.806 160.77 380.106 161.181 380.511 161.47C384.26 164.747 389.449 167.655 394.01 165.648C395.929 164.799 397.391 163.197 399.059 161.92C400.727 160.643 402.89 159.654 404.882 160.311C409.481 161.832 409.045 170.268 413.836 170.992C416.412 171.375 418.515 169.08 420.132 167.043C421.748 165.006 424.021 162.784 426.546 163.404C427.354 163.685 428.137 164.035 428.885 164.452C431.269 165.5 434.126 165.028 436.399 163.714C438.617 162.325 440.514 160.481 441.964 158.304C443.015 156.675 444.254 155.177 445.655 153.838C447.164 152.603 449.007 151.845 450.949 151.663C452.891 151.48 454.843 151.88 456.557 152.812C458.35 153.831 459.775 155.396 461.509 156.503C463.244 157.61 465.606 158.178 467.325 157.049C467.79 156.746 468.3 156.311 468.802 156.503C469.03 156.614 469.225 156.781 469.37 156.99L474.485 163.256C475.526 162.454 476.21 161.274 476.389 159.972C477.688 159.566 479.039 160.267 480.316 160.71C481.593 161.153 483.268 161.293 484.006 160.149C484.523 159.344 484.294 158.326 484.257 157.344C483.781 157.574 483.262 157.702 482.734 157.722C482.205 157.741 481.678 157.65 481.187 157.455Z" fill="black"/>
</g>
<path opacity="0.1" d="M684.016 442.648C683.572 443.031 683.109 443.391 682.628 443.725C682.628 443.725 643.509 422.874 637.08 422.498C642.151 416.91 647.059 412.164 647.059 412.164L684.016 442.648Z" fill="black"/>
<path opacity="0.1" d="M685.986 372.418C685.986 372.418 720.677 395.1 708.343 416.076C696.01 437.053 685.986 443.725 685.986 443.725C685.986 443.725 645.103 421.929 640.062 422.498C635.021 423.066 657.776 382.294 657.776 382.294L685.986 372.418Z" fill="black"/>
<path d="M684.304 371.577C684.304 371.577 718.994 394.258 706.66 415.235C694.327 436.212 684.304 442.884 684.304 442.884C684.304 442.884 643.42 421.095 638.401 421.656C633.382 422.217 656.116 381.452 656.116 381.452L684.304 371.577Z" fill="#DCE6F2"/>
<g opacity="0.1">
<path opacity="0.1" d="M696.711 345.167C694.659 344.953 692.519 344.149 691.382 342.422C691.271 342.245 691.183 342.06 691.094 341.883C690.016 342.938 687.706 342.023 687.123 340.495C686.488 338.835 687.042 337.004 687.123 335.24C687.167 333.818 686.902 332.403 686.347 331.093C685.791 329.783 684.958 328.609 683.905 327.652C682.562 326.435 680.694 325.556 678.886 325.94C677.41 326.257 676.229 327.357 674.937 328.154C673.645 328.951 671.844 329.416 670.656 328.479C669.136 327.261 669.844 324.914 669.578 323.017C669.364 321.46 668.412 320.102 667.578 318.751C665.214 314.925 663.598 310.684 662.818 306.255C662.308 303.347 662.079 300.136 659.939 298.025C658.61 296.697 656.75 296.025 654.957 295.405C651.621 294.239 648.314 292.873 644.948 291.796C642.099 290.88 639.043 290.829 636.253 289.648C633.463 288.467 630.939 285.957 630.629 283.005C630.507 281.303 630.945 279.608 631.877 278.178C632.099 277.812 632.345 277.462 632.615 277.13C631.655 277.895 630.834 278.819 630.186 279.861C629.255 281.288 628.819 282.981 628.946 284.68C629.256 287.67 631.736 290.113 634.563 291.323C637.39 292.534 640.409 292.556 643.265 293.471C646.624 294.549 649.908 295.914 653.267 297.08C655.06 297.708 656.957 298.372 658.249 299.701C660.367 301.819 660.625 305.03 661.135 307.938C661.912 312.366 663.528 316.605 665.895 320.426C666.729 321.777 667.674 323.135 667.896 324.7C668.161 326.597 667.445 328.944 668.973 330.155C670.154 331.099 671.926 330.634 673.254 329.837C674.583 329.04 675.705 327.933 677.203 327.623C679.004 327.239 680.893 328.117 682.222 329.343C683.274 330.3 684.107 331.474 684.663 332.784C685.218 334.094 685.483 335.508 685.44 336.93C685.366 338.694 684.82 340.525 685.44 342.178C686.023 343.706 688.326 344.629 689.411 343.566C689.492 343.753 689.589 343.933 689.699 344.105C690.828 345.832 692.969 346.636 695.021 346.85C696.044 347.014 697.093 346.876 698.039 346.452C698.719 346.085 699.266 345.515 699.604 344.821C698.688 345.192 697.689 345.312 696.711 345.167Z" fill="black"/>
<path opacity="0.1" d="M696.032 328.929L696.453 329.225C696.698 328.964 696.92 328.682 697.117 328.383C696.777 328.606 696.413 328.789 696.032 328.929Z" fill="black"/>
</g>
<path opacity="0.1" d="M153.716 126.691C153.716 126.691 180.656 125.067 177.483 143.948C177.483 143.948 178.11 147.284 175.091 148.797C175.091 148.797 175.039 147.402 172.323 147.874C171.348 148.04 170.357 148.087 169.371 148.015C168.05 147.927 166.795 147.409 165.798 146.538C165.798 146.538 158.218 143.409 155.273 131.038C155.273 131.038 153.059 128.337 153.184 127.643L157.731 129.584C157.731 129.584 156.174 132.861 157.399 135.592C157.399 135.592 157.547 129.688 158.418 129.843C158.595 129.843 160.779 130.979 160.779 130.979C160.779 130.979 158.108 136.692 160.123 140.848C160.123 140.848 159.384 133.806 161.599 131.393L164.802 133.26C164.802 133.26 161.68 139.165 163.798 143.977C163.798 143.977 163.252 136.596 165.474 133.718L168.374 135.976C168.374 135.976 165.422 141.792 167.23 145.786C167.23 145.786 167.467 137.187 169.002 136.537C169.002 136.537 171.541 138.751 171.954 139.696C171.954 139.696 169.939 143.918 171.216 146.147C171.216 146.147 171.954 140.42 172.611 140.397C172.611 140.397 175.135 144.191 175.401 146.789C175.276 144.385 174.525 142.054 173.224 140.028C174.681 140.306 176.026 141.004 177.091 142.036C177.091 142.036 176.7 139.349 172.596 139.084C172.596 139.084 170.508 136.205 169.947 136.035C169.947 136.035 174.028 135.688 176.501 136.773C176.501 136.773 174.323 134.242 169.201 135.393L166.337 133.053C166.337 133.053 171.711 132.315 173.984 133.135C173.984 133.135 171.364 130.92 165.57 132.522L162.448 130.662C162.448 130.662 167.031 129.673 169.755 130.027C169.755 130.027 166.876 128.477 161.532 130.16L159.318 129.156C159.318 129.156 162.676 128.499 163.658 128.418C164.64 128.337 164.691 128.042 164.691 128.042C162.566 127.687 160.384 127.93 158.388 128.743C158.388 128.743 153.635 126.949 153.716 126.691Z" fill="#6C63FF"/>
<path opacity="0.1" d="M709.997 101.057C709.997 101.057 736.944 99.4331 733.771 118.314C733.771 118.314 734.398 121.65 731.372 123.17C731.372 123.17 731.328 121.768 728.611 122.24C727.636 122.404 726.645 122.454 725.659 122.388C724.337 122.298 723.08 121.78 722.079 120.912C722.079 120.912 714.506 117.782 711.561 105.412C711.561 105.412 709.384 102.71 709.473 102.016L714.019 103.958C714.019 103.958 712.462 107.242 713.687 109.966C713.687 109.966 713.835 104.061 714.706 104.216C714.883 104.216 717.068 105.353 717.068 105.353C717.068 105.353 714.396 111.073 716.411 115.221C716.411 115.221 715.673 108.18 717.887 105.766L721.09 107.633C721.09 107.633 717.968 113.538 720.086 118.358C720.086 118.358 719.54 110.977 721.762 108.091L724.663 110.357C724.663 110.357 721.71 116.173 723.518 120.166C723.518 120.166 723.755 111.567 725.29 110.918C725.29 110.918 727.829 113.132 728.242 114.077C728.242 114.077 726.227 118.299 727.504 120.528C727.504 120.528 728.242 114.793 728.899 114.771C728.899 114.771 731.424 118.565 731.689 121.17C731.554 118.762 730.791 116.431 729.475 114.409C730.932 114.682 732.278 115.378 733.343 116.409C733.343 116.409 732.951 113.73 728.848 113.457C728.848 113.457 726.759 110.578 726.198 110.401C726.198 110.401 730.279 110.062 732.752 111.139C732.752 111.139 730.575 108.608 725.452 109.759L722.618 107.501C722.618 107.501 727.991 106.762 730.265 107.574C730.265 107.574 727.645 105.36 721.85 106.969L718.728 105.102C718.728 105.102 723.304 104.113 726.035 104.474C726.035 104.474 723.157 102.917 717.813 104.6L715.599 103.603C715.599 103.603 718.957 102.939 719.939 102.865C720.92 102.791 720.972 102.489 720.972 102.489C718.847 102.134 716.664 102.377 714.669 103.19C714.669 103.19 709.923 101.36 709.997 101.057Z" fill="#6C63FF"/>
<path opacity="0.1" d="M282.277 75.2089C282.277 75.2089 302.346 93.2701 286.669 104.253C286.669 104.253 284.728 107.043 281.502 105.958C281.502 105.958 282.462 104.939 280.218 103.338C279.425 102.762 278.702 102.095 278.063 101.352C277.192 100.35 276.673 99.09 276.587 97.7651C276.587 97.7651 273.494 90.1701 280.277 79.3865C280.277 79.3865 280.676 75.9396 281.229 75.5115L283.038 80.1172C283.038 80.1172 279.613 81.3129 278.528 84.0955C278.528 84.0955 282.824 80.0655 283.333 80.7889C283.444 80.9365 284.182 83.2689 284.182 83.2689C284.182 83.2689 278.262 85.3577 276.734 89.7272C276.734 89.7272 281.207 84.2358 284.514 84.1546L285.429 87.7417C285.429 87.7417 279.03 89.6608 277.089 94.547C277.089 94.547 281.967 88.9817 285.577 88.5463L285.997 92.2367C285.997 92.2367 279.797 94.2222 278.203 98.3039C278.203 98.3039 284.499 92.3991 286.042 93.0782C286.042 93.0782 286.226 96.4513 285.842 97.3739C285.842 97.3739 281.414 98.9091 280.713 101.36C280.713 101.36 285.333 97.8832 285.791 98.3113C285.791 98.3113 284.861 102.777 283.193 104.792C284.817 103.015 285.95 100.845 286.477 98.4958C287.305 99.7276 287.754 101.175 287.769 102.659C287.769 102.659 289.4 100.496 286.691 97.4108C286.691 97.4108 287.274 93.8975 287.009 93.3808C287.009 93.3808 290.116 96.0453 291.068 98.5475C291.068 98.5475 291.349 95.2186 286.927 92.377L286.588 88.6865C286.588 88.6865 290.876 92.0005 291.895 94.1927C291.895 94.1927 291.651 90.7532 286.418 87.7639L285.562 84.2358C285.562 84.2358 289.481 86.8043 291.142 89.0039C291.142 89.0039 290.227 85.8596 285.274 83.232L284.41 80.9291C284.41 80.9291 287.237 82.8555 287.998 83.4829C288.758 84.1103 288.994 83.9553 288.994 83.9553C287.755 82.1934 286.051 80.8108 284.071 79.9622C284.071 79.9622 282.012 75.3639 282.277 75.2089Z" fill="#6C63FF"/>
<path opacity="0.1" d="M562.695 184.506C562.695 184.506 582.764 202.56 567.079 213.55C567.079 213.55 565.145 216.34 561.912 215.248C561.912 215.248 562.879 214.229 560.636 212.628C559.838 212.057 559.114 211.391 558.48 210.642C557.61 209.64 557.091 208.38 557.004 207.055C557.004 207.055 553.919 199.467 560.695 188.676C560.695 188.676 561.086 185.229 561.639 184.801L563.448 189.407C563.448 189.407 560.023 190.603 558.938 193.385C558.938 193.385 563.234 189.363 563.75 190.079C563.854 190.226 564.599 192.559 564.599 192.559C564.599 192.559 558.687 194.662 557.13 199.024C557.13 199.024 561.61 193.54 564.909 193.452L565.824 197.046C565.824 197.046 559.432 198.958 557.484 203.852C557.484 203.852 562.363 198.279 565.972 197.843L566.4 201.497C566.4 201.497 560.193 203.49 558.606 207.564C558.606 207.564 564.894 201.696 566.437 202.338C566.437 202.338 566.629 205.719 566.245 206.642C566.245 206.642 561.816 208.169 561.078 210.62C561.078 210.62 565.699 207.143 566.156 207.579C566.156 207.579 565.226 212.008 563.558 214.052C565.185 212.276 566.32 210.106 566.85 207.756C567.676 208.988 568.123 210.436 568.135 211.919C568.135 211.919 569.773 209.756 567.057 206.671C567.057 206.671 567.647 203.165 567.374 202.641C567.374 202.641 570.482 205.306 571.441 207.808C571.441 207.808 571.714 204.479 567.3 201.637L566.954 197.947C566.954 197.947 571.249 201.253 572.268 203.446C572.268 203.446 572.024 200.006 566.791 197.024L565.928 193.489C565.928 193.489 569.847 196.065 571.508 198.257C571.508 198.257 570.592 195.113 565.647 192.492L564.798 190.197C564.798 190.197 567.618 192.123 568.386 192.758C569.153 193.393 569.375 193.23 569.375 193.23C568.135 191.467 566.431 190.083 564.451 189.23C564.451 189.23 562.422 184.654 562.695 184.506Z" fill="#6C63FF"/>
<path opacity="0.1" d="M780.596 77.283C780.596 77.283 800.657 95.3368 784.98 106.327C784.98 106.327 783.046 109.117 779.813 108.025C779.813 108.025 780.773 107.006 778.529 105.404C777.734 104.83 777.011 104.164 776.374 103.419C775.501 102.418 774.983 101.157 774.897 99.8318C774.897 99.8318 771.805 92.2442 778.588 81.4532C778.588 81.4532 778.986 78.0063 779.54 77.5856L781.348 82.1839C781.348 82.1839 777.924 83.3796 776.839 86.1623C776.839 86.1623 781.134 82.1396 781.651 82.8556C781.754 83.0032 782.5 85.3356 782.5 85.3356C782.5 85.3356 776.551 87.4465 775.008 91.7939C775.008 91.7939 779.481 86.3099 782.788 86.2213L783.703 89.8158C783.703 89.8158 777.304 91.7349 775.362 96.6211C775.362 96.6211 780.241 91.0485 783.851 90.613L784.271 94.2666C784.271 94.2666 778.071 96.2594 776.484 100.334C776.484 100.334 782.773 94.4658 784.316 95.108C784.316 95.108 784.5 98.4885 784.116 99.4111C784.116 99.4111 779.688 100.939 778.95 103.397C778.95 103.397 783.57 99.9204 784.028 100.348C784.028 100.348 783.098 104.814 781.43 106.822C783.056 105.046 784.188 102.875 784.714 100.526C785.54 101.758 785.989 103.205 786.006 104.688C786.006 104.688 787.637 102.526 784.928 99.4406C784.928 99.4406 785.511 95.9346 785.246 95.4106C785.246 95.4106 788.353 98.0751 789.305 100.577C789.305 100.577 789.586 97.2485 785.164 94.3994L784.825 90.7089C784.825 90.7089 789.113 94.0156 790.132 96.2077C790.132 96.2077 789.888 92.7682 784.662 89.7863L783.799 86.2582C783.799 86.2582 787.718 88.8268 789.379 91.0189C789.379 91.0189 788.464 87.882 783.474 85.2544L782.625 82.9589C782.625 82.9589 785.452 84.8927 786.212 85.5201C786.973 86.1475 787.209 85.9925 787.209 85.9925C785.969 84.2295 784.265 82.8447 782.286 81.992C782.286 81.992 780.322 77.4306 780.596 77.283Z" fill="#6C63FF"/>
<path opacity="0.1" d="M254.532 157.211C254.532 157.211 252.599 184.137 234.294 178.505C234.294 178.505 230.906 178.697 229.799 175.494C229.799 175.494 231.194 175.634 231.083 172.881C231.045 171.891 231.127 170.899 231.327 169.929C231.589 168.631 232.268 167.454 233.26 166.578C233.26 166.578 237.357 159.477 250.023 158.186C250.023 158.186 252.975 156.377 253.661 156.554L251.137 160.806C251.137 160.806 248.089 158.835 245.232 159.691C245.232 159.691 251.049 160.607 250.798 161.455C250.746 161.633 249.321 163.67 249.321 163.67C249.321 163.67 244.007 160.274 239.63 161.728C239.63 161.728 246.709 161.891 248.805 164.445L246.531 167.397C246.531 167.397 241.092 163.522 236.036 164.991C236.036 164.991 243.417 165.419 245.993 168.002L243.365 170.578C243.365 170.578 237.984 166.888 233.77 168.157C233.77 168.157 242.265 169.515 242.708 171.11C242.708 171.11 240.154 173.324 239.187 173.59C239.187 173.59 235.268 171.043 232.899 171.988C232.899 171.988 238.471 173.501 238.42 174.121C238.42 174.121 234.323 176.129 231.71 176.048C234.111 176.244 236.522 175.806 238.7 174.778C238.235 176.187 237.367 177.428 236.205 178.35C236.205 178.35 238.914 178.314 239.689 174.284C239.689 174.284 242.811 172.586 243.062 172.069C243.062 172.069 242.863 176.158 241.453 178.469C241.453 178.469 244.251 176.645 243.778 171.412L246.472 168.881C246.472 168.881 246.472 174.306 245.395 176.454C245.395 176.454 247.956 174.151 247.1 168.187L249.358 165.338C249.358 165.338 249.735 170.01 249.026 172.667C249.026 172.667 250.938 170.017 249.978 164.504L251.263 162.422C251.263 162.422 251.477 165.832 251.447 166.851C251.418 167.869 251.683 167.929 251.683 167.929C252.312 165.868 252.358 163.673 251.816 161.588C251.816 161.588 254.245 157.093 254.532 157.211Z" fill="#6C63FF"/>
<path opacity="0.1" d="M564.466 126.979C564.466 126.979 562.532 153.905 544.235 148.273C544.235 148.273 540.84 148.458 539.74 145.262C539.74 145.262 541.128 145.394 541.017 142.641C540.983 141.651 541.065 140.66 541.26 139.689C541.523 138.391 542.202 137.214 543.194 136.338C543.194 136.338 547.298 129.237 559.956 127.946C559.956 127.946 562.909 126.145 563.595 126.315L561.071 130.573C561.071 130.573 558.023 128.603 555.166 129.452C555.166 129.452 560.982 130.374 560.731 131.223C560.68 131.393 559.3 133.437 559.3 133.437C559.3 133.437 553.985 130.035 549.601 131.489C549.601 131.489 556.679 131.651 558.775 134.212L556.502 137.165C556.502 137.165 551.062 133.29 546.014 134.758C546.014 134.758 553.395 135.194 555.963 137.77L553.343 140.353C553.343 140.353 547.962 136.663 543.748 137.925C543.748 137.925 552.243 139.29 552.686 140.877C552.686 140.877 550.132 143.092 549.173 143.365C549.173 143.365 545.246 140.818 542.877 141.756C542.877 141.756 548.457 143.269 548.398 143.896C548.398 143.896 544.301 145.904 541.689 145.823C544.089 146.015 546.499 145.577 548.678 144.553C548.211 145.961 547.344 147.202 546.184 148.125C546.184 148.125 548.892 148.125 549.667 144.051C549.667 144.051 552.797 142.361 553.04 141.837C553.04 141.837 552.841 145.926 551.431 148.229C551.431 148.229 554.229 146.406 553.756 141.172L556.45 138.641C556.45 138.641 556.45 144.066 555.373 146.214C555.373 146.214 557.934 143.911 557.078 137.947L559.336 135.105C559.336 135.105 559.713 139.77 559.004 142.427C559.004 142.427 560.923 139.777 559.956 134.264L561.241 132.182C561.241 132.182 561.455 135.6 561.425 136.611C561.396 137.622 561.661 137.689 561.661 137.689C562.295 135.629 562.341 133.433 561.794 131.348C561.794 131.348 564.178 126.853 564.466 126.979Z" fill="#6C63FF"/>
<path opacity="0.1" d="M742.473 26.6421C742.473 26.6421 740.546 53.5679 722.242 47.9362C722.242 47.9362 718.854 48.1207 717.747 44.9248C717.747 44.9248 719.142 45.0576 719.023 42.3045C718.988 41.3139 719.072 40.3226 719.274 39.3521C719.537 38.0542 720.216 36.8776 721.208 36.0012C721.208 36.0012 725.305 28.9007 737.963 27.609C737.963 27.609 740.915 25.8081 741.602 25.9778L739.085 30.2367C739.085 30.2367 736.037 28.2659 733.18 29.1147C733.18 29.1147 738.996 30.0374 738.745 30.8862C738.694 31.0559 737.269 33.1005 737.269 33.1005C737.269 33.1005 731.955 29.6978 727.571 31.1519C727.571 31.1519 734.649 31.3143 736.745 33.8755L734.479 36.8279C734.479 36.8279 729.091 32.9528 724.02 34.429C724.02 34.429 731.401 34.8645 733.97 37.4405L731.35 40.0238C731.35 40.0238 725.969 36.3333 721.754 37.5955C721.754 37.5955 730.243 38.961 730.685 40.5479C730.685 40.5479 728.132 42.7621 727.172 43.0352C727.172 43.0352 723.253 40.4888 720.876 41.4262C720.876 41.4262 726.456 42.9393 726.397 43.5667C726.397 43.5667 722.301 45.5743 719.688 45.4931C722.088 45.6853 724.498 45.2477 726.678 44.2236C726.213 45.6329 725.346 46.875 724.183 47.796C724.183 47.796 726.899 47.796 727.667 43.7217C727.667 43.7217 730.796 42.0314 731.04 41.5074C731.04 41.5074 730.848 45.5964 729.431 47.8993C729.431 47.8993 732.228 46.0762 731.763 40.8431L734.457 38.3114C734.457 38.3114 734.457 43.7364 733.372 45.8843C733.372 45.8843 735.941 43.5814 735.084 37.6176L737.343 34.7759C737.343 34.7759 737.719 39.4407 737.003 42.0979C737.003 42.0979 738.923 39.4481 737.956 33.9345L739.24 31.8531C739.24 31.8531 739.454 35.2705 739.432 36.2817C739.41 37.2929 739.668 37.3593 739.668 37.3593C740.297 35.2987 740.343 33.1042 739.801 31.019C739.801 31.019 742.222 26.5167 742.473 26.6421Z" fill="#6C63FF"/>
<path opacity="0.1" d="M570.563 466.828L597.061 467.957" stroke="black" stroke-miterlimit="10"/>
<path opacity="0.1" d="M566.252 471.559L592.75 472.688" stroke="black" stroke-miterlimit="10"/>
<path opacity="0.1" d="M561.942 476.283L588.44 477.412" stroke="black" stroke-miterlimit="10"/>
<path opacity="0.1" d="M557.624 481.014L584.122 482.143" stroke="black" stroke-miterlimit="10"/>
<path opacity="0.1" d="M553.314 485.738L579.811 486.874" stroke="black" stroke-miterlimit="10"/>
<path opacity="0.1" d="M549.003 490.469L575.501 491.598" stroke="black" stroke-miterlimit="10"/>
<path opacity="0.1" d="M544.685 495.2L571.183 496.329" stroke="black" stroke-miterlimit="10"/>
<path opacity="0.1" d="M540.375 499.924L566.872 501.053" stroke="black" stroke-miterlimit="10"/>
</g>
<path d="M536.961 0L473.102 16.7226L482.393 56.6681C479.389 54.7246 475.775 53.5887 471.885 53.5887C461.455 53.5887 453 61.7397 453 71.7944C453 81.8491 461.455 90 471.885 90C482.315 90 490.771 81.8491 490.771 71.7944C490.771 68.2996 489.731 65.0465 487.96 62.274L480.594 30.6038L535.684 13.9069L540.722 37.498C537.698 35.5149 534.048 34.3537 530.115 34.3537C519.685 34.3537 511.229 42.5047 511.229 52.5594C511.229 62.614 519.685 70.765 530.115 70.765C540.545 70.765 549 62.6141 549 52.5594C549 49.0273 547.94 45.7415 546.134 42.9501L536.961 0Z" fill="#514ABF"/>
<path d="M614 56.8909C603.783 56.8909 595.5 64.9253 595.5 74.8363C595.5 77.638 596.181 80.2791 597.361 82.6418L607.92 124.891L613.913 123.482L605.768 90.8898C608.25 92.0896 611.039 92.7817 614 92.7817C624.217 92.7817 632.5 84.7472 632.5 74.8363C632.5 64.9254 624.217 56.8909 614 56.8909Z" fill="#514ABF"/>
<path d="M687.246 177.985L676.573 137L670.094 138.462L678.442 170.52C675.874 169.404 673.021 168.762 670 168.762C658.954 168.762 650 177.098 650 187.381C650 197.664 658.954 206 670 206C681.046 206 690 197.664 690 187.381C690 183.949 688.985 180.745 687.246 177.985V177.985Z" fill="#514ABF"/>
<defs>
<linearGradient id="paint0_linear_11429_1601" x1="385.707" y1="630.648" x2="385.707" y2="89.9708" gradientUnits="userSpaceOnUse">
<stop stop-color="#808080" stop-opacity="0.25"/>
<stop offset="0.54" stop-color="#808080" stop-opacity="0.12"/>
<stop offset="1" stop-color="#808080" stop-opacity="0.1"/>
</linearGradient>
<clipPath id="clip0_11429_1601">
<rect width="800" height="610.287" fill="white" transform="translate(0 26)"/>
</clipPath>
</defs>
</svg>
