<svg width="50" height="50" viewBox="0 0 50 50" fill="none" xmlns="http://www.w3.org/2000/svg">
<path d="M10.6687 37.0917C15.0405 34.6207 19.9783 33.3257 25 33.3333C30.2083 33.3333 35.0979 34.6979 39.3312 37.0917H10.6687ZM31.25 20.8333C31.25 22.4909 30.5915 24.0806 29.4194 25.2528C28.2473 26.4249 26.6576 27.0833 25 27.0833C23.3424 27.0833 21.7527 26.4249 20.5806 25.2528C19.4085 24.0806 18.75 22.4909 18.75 20.8333C18.75 19.1757 19.4085 17.586 20.5806 16.4139C21.7527 15.2418 23.3424 14.5833 25 14.5833C26.6576 14.5833 28.2473 15.2418 29.4194 16.4139C30.5915 17.586 31.25 19.1757 31.25 20.8333V20.8333ZM43.75 25C43.75 27.4623 43.265 29.9005 42.3227 32.1753C41.3805 34.4502 39.9993 36.5172 38.2582 38.2582C36.5172 39.9993 34.4502 41.3805 32.1753 42.3227C29.9005 43.265 27.4623 43.75 25 43.75C22.5377 43.75 20.0995 43.265 17.8247 42.3227C15.5498 41.3805 13.4828 39.9993 11.7417 38.2582C10.0006 36.5172 8.61953 34.4502 7.67726 32.1753C6.73498 29.9005 6.25 27.4623 6.25 25C6.25 20.0272 8.22544 15.2581 11.7417 11.7417C15.2581 8.22544 20.0272 6.25 25 6.25C29.9728 6.25 34.7419 8.22544 38.2582 11.7417C41.7746 15.2581 43.75 20.0272 43.75 25Z" stroke="white" stroke-width="2" stroke-linecap="round" stroke-linejoin="round"/>
</svg>
