<svg width="200" height="200" viewBox="0 0 200 200" fill="none" xmlns="http://www.w3.org/2000/svg">
<path fill-rule="evenodd" clip-rule="evenodd" d="M100 0C44.8 0 0 44.8 0 100C0 155.2 44.8 200 100 200C155.2 200 200 155.2 200 100C200 44.8 155.2 0 100 0ZM100 30.0001C116.6 30.0001 130 43.4001 130 60.0001C130 76.6001 116.6 90.0001 100 90.0001C83.4 90.0001 70 76.6001 70 60.0001C70 43.4001 83.4 30.0001 100 30.0001ZM40 139.8C52.9 159.2 75 172 100 172C125 172 147.1 159.2 160 139.8C159.7 119.9 119.9 109 100 109C80 109 40.3 119.9 40 139.8Z" fill="#858595"/>
</svg>
